<?xml version="1.0" standalone="no"?>
<!DOCTYPE svg PUBLIC "-//W3C//DTD SVG 20010904//EN"
 "http://www.w3.org/TR/2001/REC-SVG-20010904/DTD/svg10.dtd">
<svg version="1.0" xmlns="http://www.w3.org/2000/svg"
 width="512.000000pt" height="512.000000pt" viewBox="0 0 512.000000 512.000000"
 preserveAspectRatio="xMidYMid meet">
<metadata>
Created by potrace 1.14, written by Peter Selinger 2001-2017
</metadata>
<g transform="translate(0.000000,512.000000) scale(0.100000,-0.100000)"
fill="#000000" stroke="none">
<path d="M2368 4905 c-2 -1 -37 -5 -78 -9 -95 -8 -211 -28 -317 -55 -530 -136
-976 -506 -1237 -1028 -40 -80 -106 -244 -125 -313 -8 -25 -17 -56 -22 -70
-21 -61 -62 -268 -73 -370 -3 -25 -8 -72 -12 -105 -11 -107 -4 -828 11 -995 2
-25 7 -83 10 -130 11 -160 37 -350 71 -530 3 -14 18 -75 34 -137 129 -488 354
-772 709 -894 204 -71 533 -71 821 0 25 7 52 13 61 15 62 15 237 74 327 110
171 69 332 150 547 276 42 25 138 87 152 100 7 5 15 10 17 10 11 0 196 138
306 229 477 393 818 843 967 1276 26 77 49 161 58 215 3 19 8 42 10 50 21 80
21 306 0 480 -31 266 -131 563 -266 800 -34 58 -117 185 -142 216 -9 11 -39
48 -68 84 -53 67 -202 218 -276 280 -52 44 -210 160 -217 160 -3 0 -31 16 -62
36 -123 79 -414 202 -536 228 -12 3 -50 12 -83 20 -117 28 -282 48 -432 51
-84 1 -154 1 -155 0z"/>
</g>
</svg>
